<?xml version="1.0" encoding="UTF-8"?>
<svg version="1.1" xmlns="http://www.w3.org/2000/svg" width="920" height="500">
<path d="M0 0 C303.6 0 607.2 0 920 0 C920 165 920 330 920 500 C616.4 500 312.8 500 0 500 C0 335 0 170 0 0 Z " fill="#FEFEFE" transform="translate(0,0)"/>
<path d="M0 0 C0.92693699 -0.00301597 1.85387398 -0.00603194 2.80889997 -0.0091393 C3.82580906 -0.00736983 4.84271815 -0.00560036 5.89044267 -0.00377727 C6.97629758 -0.0058299 8.0621525 -0.00788253 9.18091211 -0.00999737 C12.85071857 -0.0156904 16.52048778 -0.01420728 20.1902979 -0.0127914 C22.83545916 -0.01537371 25.48061736 -0.01834753 28.12577736 -0.0217948 C34.65321634 -0.02938126 41.18064713 -0.03156818 47.70809005 -0.03212385 C55.52431018 -0.03303685 63.34052273 -0.03970249 71.1567396 -0.04647068 C90.04946249 -0.06253949 108.94218458 -0.06843489 127.83491308 -0.07321942 C136.77024451 -0.07555442 145.70557529 -0.07915696 154.64090622 -0.0829148 C185.2200941 -0.0957509 215.79928163 -0.10647019 246.37847215 -0.1099174 C248.29847405 -0.11013904 250.21847595 -0.11036082 252.13847785 -0.11058275 C254.06314964 -0.1108034 255.98782144 -0.11102388 257.91249323 -0.1112442 C261.77379698 -0.11168676 265.63510072 -0.11213387 269.49640447 -0.11258388 C270.93247542 -0.11274796 270.93247542 -0.11274796 272.3975579 -0.11291536 C303.4460901 -0.11654662 334.49459897 -0.13246898 365.54312223 -0.15577424 C398.36000508 -0.18036187 431.17687458 -0.19408974 463.9937669 -0.19528532 C467.59519452 -0.19545678 471.19662213 -0.19567221 474.79804975 -0.19591975 C475.68483955 -0.19597552 476.57162935 -0.19603129 477.48529157 -0.19608875 C491.76554185 -0.19724011 506.0457682 -0.20826931 520.3260104 -0.22280681 C534.67554397 -0.23716241 549.02504682 -0.24041409 563.37458559 -0.23236683 C571.90218348 -0.22790619 580.42968232 -0.23178852 588.95726723 -0.24760534 C594.65286853 -0.25734294 600.34840031 -0.25618877 606.04400094 -0.24616911 C609.28968237 -0.24076823 612.53513501 -0.24174894 615.78080811 -0.25267783 C619.2788552 -0.26371304 622.77639733 -0.25632206 626.2744301 -0.2442863 C627.27963336 -0.25188149 628.28483662 -0.25947669 629.32050058 -0.26730204 C640.3205356 -0.18536151 648.25791095 3.08776909 656.08844548 10.791713 C663.77730479 19.23211495 665.51177433 27.42801891 665.53748113 38.74236608 C665.54193781 39.84437154 665.54193781 39.84437154 665.54648453 40.96863973 C665.5551083 43.41341943 665.55667436 45.8581498 665.55817205 48.30294347 C665.56280458 50.06275083 665.56782983 51.8225572 665.57321721 53.58236241 C665.58629841 58.35099478 665.59277741 63.11961311 665.59722787 67.8882606 C665.6001646 70.87021088 665.60427046 73.85215737 665.60873204 76.83410573 C665.62239367 86.17210643 665.63206771 95.51009841 665.63593394 104.84810841 C665.64041611 115.61305996 665.65797703 126.37788462 665.68693453 137.14279759 C665.70856767 145.47507251 665.71863904 153.80731176 665.71997505 162.13961446 C665.7210216 167.11138293 665.72689796 172.0830319 665.74479467 177.05477071 C665.76130431 181.7317356 665.76341682 186.40849151 665.75465566 191.08547521 C665.75388692 192.79746745 665.75820637 194.50947108 665.76811391 196.22143483 C665.83773919 209.00641452 665.14107217 218.20753983 655.86578923 227.88936925 C646.94959368 235.97319845 638.0390804 236.27878802 626.53728563 236.26187158 C625.44826878 236.26422381 624.35925192 236.26657604 623.23723456 236.26899955 C619.57472842 236.27567591 615.91225786 236.27523174 612.24974614 236.27482152 C609.60270833 236.27812096 606.95567361 236.28180907 604.30863726 236.285963 C597.78817002 236.29527752 591.26770957 236.2992091 584.74723651 236.30148196 C576.93689346 236.30444694 569.12655938 236.31314594 561.31622105 236.32189624 C542.44135412 236.34272716 523.56648565 236.35320742 504.69160992 236.36202585 C495.76321359 236.36623338 486.83481793 236.37145516 477.90642217 236.37671038 C447.34462444 236.39459737 416.78282652 236.40959444 386.22102433 236.41703057 C384.30289811 236.41750533 382.3847719 236.41798122 380.46664568 236.41845823 C379.03982499 236.4188128 379.03982499 236.4188128 377.58417965 236.41917453 C372.76488219 236.42037572 367.94558473 236.42159117 363.12628728 236.42281651 C362.16988607 236.42305666 361.21348485 236.42329681 360.22810178 236.42354424 C329.20660097 236.43144038 298.18513836 236.45488033 267.16365423 236.48737246 C234.36656446 236.5216617 201.56949705 236.54138075 168.77238905 236.54467481 C165.17295616 236.54509236 161.57352328 236.54557192 157.9740904 236.54609799 C157.08780752 236.54622119 156.20152465 236.54634438 155.28838471 236.5464713 C141.02057525 236.54880415 126.75281014 236.5644685 112.48501648 236.58493984 C98.14814865 236.60518423 83.81133415 236.61068165 69.47445466 236.60116921 C60.95590851 236.59594928 52.43753981 236.60185495 43.91901917 236.62370388 C38.22828467 236.63719769 32.53767252 236.63614758 26.84693684 236.62330192 C23.60485543 236.61639585 20.3631817 236.61797821 17.1211172 236.63286201 C13.62521148 236.64791918 10.13019964 236.6383499 6.63431627 236.62263513 C5.63259756 236.63285733 4.63087886 236.64307954 3.59880504 236.65361151 C-6.56315736 236.55376235 -15.13972185 233.06009871 -22.60296077 226.1276505 C-27.86880185 220.58145214 -30.40728284 214.37901761 -32.60296077 207.1276505 C-32.7807746 206.55897567 -32.95858844 205.99030084 -33.14179057 205.40439343 C-33.76944186 202.30575295 -33.73588825 199.3461341 -33.74340266 196.18413854 C-33.74637378 195.48540549 -33.7493449 194.78667244 -33.75240606 194.06676567 C-33.76107705 191.72555757 -33.76259997 189.38440072 -33.76409358 187.04317784 C-33.76872299 185.36425217 -33.77374782 183.68532756 -33.77913874 182.00640416 C-33.79225537 177.44413201 -33.7987066 172.88187457 -33.8031494 168.31958652 C-33.80608212 165.46712953 -33.81018738 162.61467654 -33.81465358 159.76222157 C-33.82832834 150.83160169 -33.83799435 141.90099098 -33.84185547 132.97036135 C-33.84633229 122.67289131 -33.86386284 112.37555426 -33.89285606 102.07812464 C-33.91450404 94.11192115 -33.92456146 86.14575498 -33.92589658 78.1795224 C-33.92694264 73.42509249 -33.93280768 68.6707876 -33.9507162 63.91638875 C-33.96725016 59.43972701 -33.96932664 54.96328355 -33.96057719 50.48660207 C-33.95980958 48.84920978 -33.96411286 47.2118055 -33.97403544 45.5744431 C-34.05654371 31.10327372 -32.19564782 20.166459 -21.87249202 9.307338 C-15.66201759 3.65111644 -8.47053902 0.00546583 0 0 Z " fill="#010101" transform="translate(143.6029607653618,131.87234950065613)"/>
<path d="M0 0 C2.99414062 1.27832031 2.99414062 1.27832031 6.15625 3.078125 C7.01895004 3.56168205 7.01895004 3.56168205 7.89907837 4.05500793 C9.77282208 5.10849593 11.63611756 6.1791787 13.5 7.25 C14.81026437 7.99021694 16.12130903 8.72905429 17.43310547 9.46655273 C20.06726324 10.94854773 22.69828679 12.4358786 25.32714844 13.92724609 C30.22652376 16.70033113 35.17342885 19.38404027 40.125 22.0625 C50.64583453 27.7823938 61.1127485 33.59829655 71.57421875 39.42578125 C75.59167104 41.6634025 79.61401759 43.89146366 83.64453125 46.10546875 C84.48467773 46.56808105 85.32482422 47.03069336 86.19042969 47.50732422 C87.72473144 48.35153759 89.26044879 49.19318548 90.79785156 50.03173828 C93.48928883 51.51547934 95.81476675 52.81476675 98 55 C98.33984375 57.453125 98.33984375 57.453125 98 60 C96.62890625 61.484375 96.62890625 61.484375 94.5625 62.75 C93.7375 63.2553125 92.9125 63.760625 92.0625 64.28125 C86.96892606 67.13988844 81.80809105 69.86276612 76.62890625 72.5625 C69.71666164 76.17836214 62.92305394 80.00916352 56.11547852 83.81713867 C48.95602877 87.82031629 41.76837146 91.76853984 34.5625 95.6875 C27.3406158 99.62153123 20.12817602 103.57167856 12.9375 107.5625 C12.20668213 107.96750732 11.47586426 108.37251465 10.72290039 108.78979492 C7.84039905 110.39299724 4.99568009 112.00270522 2.19921875 113.75390625 C-0.72599476 115.41135405 -2.69277564 115.43137709 -6 115 C-8.09622858 113.42578524 -8.9013689 112.53899059 -9.37752342 109.93694305 C-9.3786545 109.13980141 -9.37978558 108.34265976 -9.38095093 107.5213623 C-9.3894104 106.604431 -9.39786987 105.68749969 -9.40658569 104.74278259 C-9.400513 103.73905106 -9.39444031 102.73531952 -9.38818359 101.70117188 C-9.39344055 100.64241348 -9.39869751 99.58365509 -9.40411377 98.49281311 C-9.41734359 94.98464307 -9.40856487 91.47692485 -9.3984375 87.96875 C-9.40045737 85.53641675 -9.40336808 83.1040841 -9.40713501 80.67175293 C-9.41156242 75.57066083 -9.40511375 70.46972617 -9.39111328 65.36865234 C-9.37402137 58.82112852 -9.3838603 52.27397359 -9.40183067 45.72646332 C-9.41265714 40.7028321 -9.40922736 35.67928873 -9.4014473 30.65565491 C-9.39944215 28.24105282 -9.40191553 25.82644283 -9.40888596 23.41184998 C-9.41648156 20.04062692 -9.4049222 16.67000617 -9.38818359 13.29882812 C-9.39425629 12.29509659 -9.40032898 11.29136505 -9.40658569 10.25721741 C-9.39812622 9.3402861 -9.38966675 8.4233548 -9.38095093 7.4786377 C-9.37981985 6.68149605 -9.37868877 5.8843544 -9.37752342 5.06305695 C-8.41084756 -0.21954867 -4.72593036 -0.56151097 0 0 Z " fill="#6EAABA" transform="translate(147,225)"/>
<path d="M0 0 C6.26904795 0.39310862 10.85018956 3.51300675 16.125 6.625 C24.99713745 11.75456267 33.94729664 16.69674686 43 21.5 C52.67712626 26.64476365 62.27273263 31.91399374 71.79370117 37.34301758 C79.10801068 41.51232339 86.47507861 45.57779013 93.88476562 49.57519531 C94.66142578 49.99768555 95.43808594 50.42017578 96.23828125 50.85546875 C96.91930908 51.22309326 97.60033691 51.59071777 98.30200195 51.96948242 C100 53 100 53 102 55 C102.33984375 57.453125 102.33984375 57.453125 102 60 C100.62890625 61.484375 100.62890625 61.484375 98.5625 62.75 C97.7375 63.2553125 96.9125 63.760625 96.0625 64.28125 C90.96892606 67.13988844 85.80809105 69.86276612 80.62890625 72.5625 C73.71666164 76.17836214 66.92305394 80.00916352 60.11547852 83.81713867 C52.95602877 87.82031629 45.76837146 91.76853984 38.5625 95.6875 C31.3406158 99.62153123 24.12817602 103.57167856 16.9375 107.5625 C16.20668213 107.96750732 15.47586426 108.37251465 14.72290039 108.78979492 C13.69797485 109.35984253 13.69797485 109.35984253 12.65234375 109.94140625 C12.0188501 110.29372314 11.38535645 110.64604004 10.73266602 111.0090332 C9.20033594 111.8854215 7.70243944 112.82142489 6.2109375 113.765625 C3.3628234 115.35573817 1.20770165 115.22379314 -2 115 C17 96 36 77 55 58 C53.42314657 54.18935162 51.02326106 51.77572618 48.12304688 48.88012695 C47.62853531 48.38371704 47.13402374 47.88730713 46.62452698 47.37585449 C44.9941087 45.74174138 43.35661935 44.11492341 41.71875 42.48828125 C40.58260246 41.35332615 39.4468247 40.21800077 38.31140137 39.08232117 C35.93382669 36.70630902 33.55293426 34.3336902 31.16943359 31.96362305 C28.11089909 28.92210701 25.05901775 25.87402057 22.00936127 22.82360554 C19.66598787 20.48050369 17.32002017 18.14001433 14.97315979 15.8004055 C13.84660351 14.67703566 12.72065563 13.55305536 11.59532166 12.42846107 C10.02503259 10.86033417 8.45149859 9.29554096 6.87695312 7.73168945 C5.98141724 6.83996536 5.08588135 5.94824127 4.16320801 5.02949524 C2.17038524 2.96609793 2.17038524 2.96609793 0 2 C0 1.34 0 0.68 0 0 Z " fill="#CADDA0" transform="translate(143,225)"/>
<path d="M0 0 C0.98396507 0.00424484 0.98396507 0.00424484 1.98780823 0.00857544 C4.05587034 0.01965266 6.12347798 0.04473187 8.19140625 0.0703125 C9.6048114 0.08035848 11.01822342 0.08948148 12.43164062 0.09765625 C15.87254019 0.11955066 19.31317877 0.15399199 22.75390625 0.1953125 C19.83041867 3.47861394 16.9993313 4.15398183 12.75390625 5.1953125 C13.57890625 6.0821875 14.40390625 6.9690625 15.25390625 7.8828125 C19.01147002 13.15413768 18.72435136 18.99698566 17.75390625 25.1953125 C15.97160536 29.48491804 13.04735682 32.02805624 9.44140625 34.8203125 C6.60722564 36.87314733 6.60722564 36.87314733 6.1875 39.4609375 C7.06576462 43.70083565 9.91244214 45.599211 13.12890625 48.3203125 C14.32657761 49.36187712 15.52198106 50.40605664 16.71484375 51.453125 C17.51607666 52.13592529 17.51607666 52.13592529 18.33349609 52.83251953 C21.48761023 55.85869092 22.090474 58.17334407 22.19140625 62.3828125 C22.06044686 69.45461938 19.35965737 73.43628191 14.62890625 78.4453125 C5.03451037 84.28537956 -5.19962857 85.77971021 -16.24609375 84.1953125 C-21.28681179 82.68061397 -24.88066423 80.39422622 -28.80859375 76.9453125 C-31.22606465 72.32058556 -31.6628908 67.69609482 -30.80859375 62.5703125 C-27.15393799 57.01523575 -21.81611921 52.69241165 -15.4765625 50.6171875 C-11.09356608 49.78817942 -6.68341554 49.97507778 -2.24609375 50.1953125 C-2.76171875 49.3290625 -3.27734375 48.4628125 -3.80859375 47.5703125 C-5.41392344 43.80127757 -5.2652042 42.08646151 -4.24609375 38.1953125 C-4.80296875 38.25332031 -5.35984375 38.31132812 -5.93359375 38.37109375 C-12.33236989 38.74939977 -16.42045699 37.46540192 -21.24609375 33.1953125 C-25.38894788 28.12031619 -25.98552388 23.64409678 -25.765625 17.13671875 C-24.71707279 11.20017881 -20.97172 7.87669193 -16.80859375 3.8203125 C-11.53696854 0.47733066 -6.12900586 -0.05260949 0 0 Z " fill="#F4F4F4" transform="translate(494.24609375,259.8046875)"/>
<path d="M0 0 C0.33 0 0.66 0 1 0 C1 7.92 1 15.84 1 24 C2.65 23.34 4.3 22.68 6 22 C7.427382 21.60706809 8.86433602 21.24735072 10.30859375 20.921875 C11.1274707 20.73334961 11.94634766 20.54482422 12.79003906 20.35058594 C13.66370117 20.15239258 14.53736328 19.95419922 15.4375 19.75 C24.18121149 17.72984796 32.83089274 15.4642565 41.45092773 12.96777344 C46.98817983 11.40340728 52.26345792 10.4877222 58 10 C58.66 11.32 59.32 12.64 60 14 C52.78230146 21.33339033 45.55127208 28.65334096 38.30276871 35.95629215 C34.93765108 39.34753796 31.57735528 42.74329168 28.22753906 46.1496582 C24.99648085 49.43491963 21.75347018 52.70792607 18.50170135 55.97268486 C17.26132702 57.22231999 16.02537259 58.47635789 14.79389191 59.73475838 C13.07222328 61.4925603 11.33570245 63.23424926 9.59472656 64.97290039 C9.08546631 65.50013702 8.57620605 66.02737366 8.05151367 66.57058716 C6.60699463 67.99427795 6.60699463 67.99427795 4 70 C2.68 69.67 1.36 69.34 0 69 C0 46.23 0 23.46 0 0 Z " fill="#85C0BC" transform="translate(139,269)"/>
<path d="M0 0 C0.65379639 0.15670166 1.30759277 0.31340332 1.98120117 0.47485352 C6.73343513 1.73779918 10.47597546 3.69840351 14.625 6.25 C13.09083702 10.23882376 10.2002926 13.89783382 6.625 16.25 C4.4296875 15.91796875 4.4296875 15.91796875 2.625 15.25 C2.955 13.93 3.285 12.61 3.625 11.25 C2.573125 10.46625 1.52125 9.6825 0.4375 8.875 C-0.15417969 8.43414062 -0.74585938 7.99328125 -1.35546875 7.5390625 C-6.21690208 4.43601995 -10.56609144 3.91093968 -16.25 3.9375 C-16.93191406 3.92138672 -17.61382812 3.90527344 -18.31640625 3.88867188 C-26.28924749 3.88107869 -31.88613644 7.12678754 -37.6484375 12.421875 C-39.92366175 14.83093597 -41.19264229 17.16273264 -42.375 20.25 C-42.766875 21.136875 -43.15875 22.02375 -43.5625 22.9375 C-46.09175397 33.24907386 -44.14677998 44.49046171 -38.984375 53.7421875 C-33.49396955 61.39985826 -26.23879211 66.29540263 -17.375 69.25 C-15.10580752 69.34584167 -12.83371041 69.37983751 -10.5625 69.375 C-8.75845703 69.37886719 -8.75845703 69.37886719 -6.91796875 69.3828125 C-2.94478737 69.30916831 -2.94478737 69.30916831 2.625 68.25 C2.955 62.97 3.285 57.69 3.625 52.25 C-0.995 52.25 -5.615 52.25 -10.375 52.25 C-7.20559395 49.08059395 -5.36977449 47.43309715 -0.90136719 47.02294922 C0.44973145 47.03865967 0.44973145 47.03865967 1.828125 47.0546875 C3.29765625 47.06435547 3.29765625 47.06435547 4.796875 47.07421875 C5.81265625 47.09097656 6.8284375 47.10773438 7.875 47.125 C8.90625 47.13402344 9.9375 47.14304687 11 47.15234375 C13.54190287 47.17587989 16.0833328 47.20875977 18.625 47.25 C16.75 51.125 16.75 51.125 15.625 52.25 C15.46917697 53.59015221 15.37455858 54.93758903 15.30859375 56.28515625 C15.26669922 57.09404297 15.22480469 57.90292969 15.18164062 58.73632812 C15.14232422 59.58646484 15.10300781 60.43660156 15.0625 61.3125 C14.99772461 62.59350586 14.99772461 62.59350586 14.93164062 63.90039062 C14.82523298 66.01672037 14.72458269 68.13333813 14.625 70.25 C-22.38733004 79.39605422 -22.38733004 79.39605422 -38.05859375 70.7734375 C-47.55072155 64.59579712 -53.40883111 56.20974269 -56.375 45.25 C-57.79183821 33.82388541 -56.26066505 24.02068542 -49.390625 14.5 C-36.50628904 -0.85154923 -19.00849899 -4.58947516 0 0 Z " fill="#F1F1F1" transform="translate(328.375,237.75)"/>
<path d="M0 0 C4.84252164 2.26106398 7.97287601 5.46528326 10.37890625 10.27734375 C10.49595589 11.63486671 10.55567814 12.99760263 10.58422852 14.35986328 C10.61414635 15.62094406 10.61414635 15.62094406 10.64466858 16.90750122 C10.66138107 17.81587738 10.67809357 18.72425354 10.6953125 19.66015625 C10.7160936 20.58956024 10.73687469 21.51896423 10.75828552 22.47653198 C10.82378271 25.45172585 10.88266677 28.42700952 10.94140625 31.40234375 C10.98459131 33.41667603 11.02820559 35.43099916 11.07226562 37.4453125 C11.17946428 42.38923038 11.28073126 47.33323878 11.37890625 52.27734375 C9.39890625 52.27734375 7.41890625 52.27734375 5.37890625 52.27734375 C4.88390625 48.81234375 4.88390625 48.81234375 4.37890625 45.27734375 C3.71890625 45.27734375 3.05890625 45.27734375 2.37890625 45.27734375 C2.37890625 45.93734375 2.37890625 46.59734375 2.37890625 47.27734375 C-5.26797845 53.10354162 -12.21891038 54.06624772 -21.62109375 53.27734375 C-26.77418703 51.77826207 -29.12882632 49.00136721 -31.703125 44.4609375 C-33.27775533 40.71532747 -33.20938986 38.33005031 -32.62109375 34.27734375 C-29.69221778 28.41959182 -25.68403171 25.38471363 -19.57421875 23.17578125 C-14.81902955 21.87611735 -10.07673158 22.06075154 -5.18359375 22.15234375 C-4.26126953 22.16136719 -3.33894531 22.17039062 -2.38867188 22.1796875 C-0.13253566 22.20306715 2.12304309 22.23583459 4.37890625 22.27734375 C4.10798024 13.91919057 4.10798024 13.91919057 -0.62109375 7.27734375 C-4.90399143 4.74165328 -8.75753382 4.72876039 -13.62109375 5.27734375 C-17.16183985 6.31284497 -19.97901634 7.63526634 -22.62109375 10.27734375 C-23.26361725 12.34608409 -23.26361725 12.34608409 -23.62109375 14.27734375 C-25.60109375 14.27734375 -27.58109375 14.27734375 -29.62109375 14.27734375 C-30.12109375 11.71484375 -30.12109375 11.71484375 -29.62109375 8.27734375 C-21.72834196 -0.79932081 -11.58633671 -3.19444455 0 0 Z " fill="#F4F4F4" transform="translate(715.62109375,258.72265625)"/>
<path d="M0 0 C3.75667533 2.37653475 6.08106429 4.82597919 8.0625 8.875 C8.0625 10.195 8.0625 11.515 8.0625 12.875 C6.91652344 13.34550781 5.77054688 13.81601562 4.58984375 14.30078125 C3.0598846 14.92966017 1.52993731 15.55856795 0 16.1875 C-1.12825195 16.6505957 -1.12825195 16.6505957 -2.27929688 17.12304688 C-3.02373047 17.42919922 -3.76816406 17.73535156 -4.53515625 18.05078125 C-5.27773682 18.35540283 -6.02031738 18.66002441 -6.78540039 18.97387695 C-8.76903066 19.80445884 -10.7267583 20.6797016 -12.6875 21.5625 C-15.57867554 22.73009012 -17.79606679 23.32565898 -20.875 23.5625 C-22.03322266 23.66111328 -22.03322266 23.66111328 -23.21484375 23.76171875 C-23.78332031 23.79910156 -24.35179687 23.83648437 -24.9375 23.875 C-22.40292199 31.55744763 -19.06906823 38.49058241 -12.11328125 43.078125 C-5.28958869 45.57728709 3.37347592 44.36393919 10.0625 41.875 C6.50706594 46.99482505 2.61761619 49.7811181 -3.375 51.625 C-12.45253087 52.51061277 -19.82849977 51.64323891 -27.1875 45.875 C-33.62300472 39.70978648 -36.19821306 32.63207863 -36.5625 23.8125 C-36.2510725 16.33004454 -34.48748901 10.37300172 -29.0703125 5.03515625 C-20.48054144 -1.79989504 -10.28260214 -5.25141131 0 0 Z " fill="#F1F1F1" transform="translate(578.9375,260.125)"/>
<path d="M0 0 C4.41328808 3.35409894 7.1012738 6.91193777 8.125 12.375 C8.7510087 20.61573753 9.00229128 28.37132868 4.125 35.375 C0.17504629 39.5567112 -3.27246862 41.54925691 -9 41.8125 C-15.2281514 41.77980629 -18.50353914 39.61243022 -22.875 35.375 C-23.39521729 34.96209717 -23.91543457 34.54919434 -24.45141602 34.1237793 C-27.47862037 30.40505784 -26.34086288 24.57931656 -26.3125 20 C-26.33248047 18.86304688 -26.35246094 17.72609375 -26.37304688 16.5546875 C-26.36814346 8.19926853 -26.36814346 8.19926853 -23.97265625 4.1953125 C-23.28042969 3.59460938 -22.58820312 2.99390625 -21.875 2.375 C-20.885 1.50875 -20.885 1.50875 -19.875 0.625 C-14.28250766 -2.87030772 -5.80863911 -3.02350329 0 0 Z " fill="#020202" transform="translate(646.875,265.625)"/>
<path d="M0 0 C6.43913274 3.59734386 9.86046682 9.09907796 12 16 C12.75 19.375 12.75 19.375 13 23 C13.06316406 23.85722656 13.12632812 24.71445312 13.19140625 25.59765625 C13.45843071 31.85981048 12.89150756 36.90740986 9 42 C5.84857136 44.98519943 3.48655444 45.47971975 -0.8125 45.5625 C-5.87155663 45.39632661 -8.96299084 44.76795802 -12.53515625 41.1171875 C-18.76817657 32.10839547 -21.03984678 21.773968 -20 11 C-16.00119436 2.7061809 -9.10927186 -1.72887297 0 0 Z " fill="#040404" transform="translate(381,262)"/>
<path d="M0 0 C6.31206627 4.1602255 9.55955427 11.01181363 11.34765625 18.22265625 C12.44827932 25.30724938 13.007214 32.73076571 8.75 38.8125 C5.89589157 42.11256287 3.90765121 43.51450272 -0.484375 44.12109375 C-5.17565772 44.36148557 -8.38972649 44.28996286 -12.125 41.25 C-19.35234449 33.95463345 -21.2126465 25.63385226 -21.5625 15.625 C-21.41560219 10.41828873 -20.50234845 6.16018596 -16.7734375 2.2734375 C-11.36813241 -2.14459726 -6.58848236 -2.40733009 0 0 Z " fill="#040404" transform="translate(441.25,263.1875)"/>
<path d="M0 0 C7.42597701 6.29593181 7.42597701 6.29593181 10.30859375 9.2109375 C10.82744141 9.73300781 11.34628906 10.25507813 11.88085938 10.79296875 C12.39455078 11.31503906 12.90824219 11.83710938 13.4375 12.375 C13.97826172 12.92027344 14.51902344 13.46554687 15.07617188 14.02734375 C16.38646723 15.34923464 17.69358284 16.67427618 19 18 C15.31585952 20.98739889 11.26882904 23.1671867 7.125 25.4375 C6.33689941 25.87215576 5.54879883 26.30681152 4.73681641 26.75463867 C2.16004618 28.17374774 -0.41957571 29.58754718 -3 31 C-3.86044922 31.47147461 -4.72089844 31.94294922 -5.60742188 32.42871094 C-14.26794459 37.17107152 -22.94095329 41.89010724 -31.62890625 46.58203125 C-33.27028564 47.46894653 -33.27028564 47.46894653 -34.94482422 48.3737793 C-37.06939973 49.52116524 -39.19469947 50.6672114 -41.32080078 51.81176758 C-42.28099121 52.3302124 -43.24118164 52.84865723 -44.23046875 53.3828125 C-45.50506958 54.06947998 -45.50506958 54.06947998 -46.80541992 54.77001953 C-48.58407888 55.76689169 -50.30347786 56.86898524 -52 58 C-55.1875 58.125 -55.1875 58.125 -58 58 C-38.66666667 38.66666667 -19.33333333 19.33333333 0 0 Z " fill="#D24C40" transform="translate(199,282)"/>
<path d="M0 0 C5.63217784 3.77552989 9.96508912 8.95386112 12.12109375 15.421875 C12.86266661 25.67016873 12.60682029 33.06392386 5.87109375 41.109375 C-3.44157287 48.94048102 -10.75213788 50.15809347 -22.87890625 49.421875 C-29.74955581 48.08693596 -35.52737899 42.70492513 -39.49609375 37.1640625 C-43.15062632 30.74282165 -44.05319385 24.70823331 -42.87890625 17.421875 C-40.27158021 9.03776695 -35.11672933 3.39851307 -27.5625 -0.89453125 C-18.1821471 -5.21581742 -8.98907945 -5.12017965 0 0 Z M-30.87890625 9.421875 C-33.88361777 15.43129804 -32.07204172 23.70076374 -30.12890625 29.796875 C-27.76594169 36.14786044 -25.064058 42.07158447 -18.87890625 45.421875 C-13.51476381 46.15199439 -8.69826847 46.35012103 -3.81640625 43.859375 C1.95402771 36.59979679 1.78613248 29.68432307 0.83984375 20.7734375 C-0.33835133 13.40971822 -3.32770101 7.67890353 -8.62890625 2.421875 C-17.61966798 -3.11090145 -25.22747469 1.46800836 -30.87890625 9.421875 Z " fill="#F4F4F4" transform="translate(392.87890625,261.578125)"/>
<path d="M0 0 C6.2425777 3.66764964 11.22857372 9.30146809 13.25390625 16.32421875 C14.46082297 25.20812117 13.13742698 34.1806695 7.640625 41.4609375 C2.10858721 47.31189543 -3.78691289 49.99403001 -11.796875 50.52734375 C-20.34800348 50.65023422 -27.64384009 50.1831548 -34.29296875 44.08203125 C-39.88672595 37.31538948 -42.71014986 29.90820725 -42.1953125 21.14453125 C-40.91946119 13.13440392 -37.13137855 7.28053861 -30.74609375 2.32421875 C-21.01717753 -3.55962948 -10.54286961 -4.82298209 0 0 Z M-28.74609375 7.32421875 C-32.85536099 14.85787536 -30.9433252 24.58014843 -28.796875 32.484375 C-26.66402185 38.24862867 -23.0023896 43.0754012 -17.74609375 46.32421875 C-13.26910195 47.06674422 -9.06768951 46.87009526 -4.87109375 45.13671875 C-0.74711735 41.61920946 2.01282877 38.32841502 2.45703125 32.79296875 C2.61544939 22.75981977 1.45170268 13.83165034 -5.1484375 5.91796875 C-8.67507151 2.39995732 -11.76316051 1.46690261 -16.62109375 0.76171875 C-21.7651046 0.96945765 -25.26737769 3.71234609 -28.74609375 7.32421875 Z " fill="#F5F5F5" transform="translate(450.74609375,260.67578125)"/>
<path d="M0 0 C6.48495493 3.48357215 10.24834335 8.28248084 13.13671875 15.0078125 C15.62527749 24.67017947 14.62953387 34.13415273 10.13671875 43.0078125 C6.51341457 48.93285095 1.79538119 52.12745932 -4.86328125 54.0078125 C-12.15618509 55.36403672 -17.71304956 52.84444096 -23.86328125 49.0078125 C-24.52328125 48.3478125 -25.18328125 47.6878125 -25.86328125 47.0078125 C-26.19328125 55.2578125 -26.52328125 63.5078125 -26.86328125 72.0078125 C-28.84328125 72.0078125 -30.82328125 72.0078125 -32.86328125 72.0078125 C-32.86328125 48.2478125 -32.86328125 24.4878125 -32.86328125 0.0078125 C-30.88328125 0.0078125 -28.90328125 0.0078125 -26.86328125 0.0078125 C-26.53328125 1.9878125 -26.20328125 3.9678125 -25.86328125 6.0078125 C-24.95578125 5.2240625 -24.04828125 4.4403125 -23.11328125 3.6328125 C-16.46144155 -2.11195815 -8.31869687 -2.88260437 0 0 Z M-25.86328125 12.0078125 C-27.96518575 16.21162151 -27.35764838 21.51363419 -27.48828125 26.1328125 C-27.55917969 27.24914062 -27.63007812 28.36546875 -27.703125 29.515625 C-27.85985531 35.99436046 -27.85985531 35.99436046 -24.88574219 41.56152344 C-19.04560655 46.8071122 -15.41821744 48.3705602 -7.625 48.2890625 C-2.57810264 47.77509276 0.02497977 45.18131475 3.38671875 41.6328125 C8.03141069 34.66577459 7.73976217 27.09236339 7.13671875 19.0078125 C6.00516738 13.82742887 3.13393114 10.42006698 -0.86328125 7.0078125 C-9.81553686 1.58735393 -18.89212777 5.67040025 -25.86328125 12.0078125 Z " fill="#EEEEEE" transform="translate(647.86328125,258.9921875)"/>
<path d="M0 0 C4.43961038 2.59879632 7.64065866 5.7750754 9.75 10.5 C10.84047044 16.33676265 10.63264511 21.72662875 7.75 27 C4.79279914 30.96496204 1.52793991 33.21673573 -3.25 34.5 C-9.4795802 35.26984869 -14.97173887 35.23340422 -20.25 31.5 C-25.57463489 25.73164553 -26.77623913 21.29788047 -26.625 13.546875 C-25.96327628 8.17036975 -23.70345251 4.69191696 -19.7109375 1.125 C-13.79147763 -2.91482095 -6.45091937 -2.76291767 0 0 Z " fill="#F0F0F0" transform="translate(477.25,164.5)"/>
<path d="M0 0 C0.80179688 0.00451172 1.60359375 0.00902344 2.4296875 0.01367188 C4.41149006 0.02546832 6.39325433 0.04340395 8.375 0.0625 C7.64352753 0.59615677 7.64352753 0.59615677 6.89727783 1.14059448 C4.64582811 3.98309377 5.0079413 6.22088412 5.01855469 9.81298828 C5.01651031 10.49457001 5.01446594 11.17615173 5.01235962 11.87838745 C5.00935256 14.13013579 5.02782259 16.38115128 5.046875 18.6328125 C5.04993234 20.19554462 5.05180865 21.75827947 5.05255127 23.3210144 C5.05715352 26.59448692 5.07157849 29.86771331 5.09375 33.14111328 C5.12207911 37.34584629 5.13296618 41.55038577 5.1374321 45.75520515 C5.14157968 48.98072257 5.15139082 52.20620052 5.16330719 55.43169785 C5.16902006 56.98271238 5.17377539 58.53373073 5.17757416 60.08475113 C5.18441575 62.24683629 5.19803668 64.40876515 5.21386719 66.57080078 C5.22069519 67.80307404 5.22752319 69.03534729 5.23455811 70.30496216 C5.06158866 72.972497 5.06158866 72.972497 6.375 74.0625 C8.70317964 74.43010731 11.0368385 74.76491581 13.375 75.0625 C11.70763592 77.10720249 10.85002434 77.98816921 8.19848633 78.40307617 C7.37630615 78.38736572 6.55412598 78.37165527 5.70703125 78.35546875 C4.81435547 78.34580078 3.92167969 78.33613281 3.00195312 78.32617188 C2.07318359 78.30103516 1.14441406 78.27589844 0.1875 78.25 C-0.75287109 78.23646484 -1.69324219 78.22292969 -2.66210938 78.20898438 C-4.98365038 78.17363096 -7.30403653 78.12428674 -9.625 78.0625 C-9.30157623 77.54439758 -8.97815247 77.02629517 -8.64492798 76.49249268 C-7.30186121 73.29261731 -7.34359775 70.65255788 -7.30615234 67.18261719 C-7.29610672 66.49928314 -7.2860611 65.8159491 -7.27571106 65.11190796 C-7.24490602 62.86107192 -7.22785171 60.61035469 -7.2109375 58.359375 C-7.19222366 56.79566426 -7.17265008 55.2319636 -7.1522522 53.66827393 C-7.10094767 49.55841006 -7.06131305 45.44851345 -7.02410889 41.33850098 C-6.98405867 37.14225173 -6.93297098 32.94613844 -6.8828125 28.75 C-6.78607311 20.52092625 -6.70166206 12.29178516 -6.625 4.0625 C-9.265 4.0625 -11.905 4.0625 -14.625 4.0625 C-9.5737396 0.18986703 -6.30134001 -0.06649141 0 0 Z " fill="#F5F5F5" transform="translate(530.625,231.9375)"/>
<path d="M0 0 C0 0.66 0 1.32 0 2 C0.59572815 2.27041107 1.1914563 2.54082214 1.80523682 2.81942749 C3.98172573 3.99017019 5.38542137 5.14318823 7.11621094 6.88916016 C7.69651062 7.4696109 8.2768103 8.05006165 8.87469482 8.64810181 C9.48838928 9.27211884 10.10208374 9.89613586 10.734375 10.5390625 C11.37240051 11.17991791 12.01042603 11.82077332 12.66778564 12.48104858 C14.69994069 14.52437821 16.72502218 16.57455982 18.75 18.625 C20.1284453 20.0134786 21.50734636 21.4015049 22.88671875 22.7890625 C26.26311894 26.18748697 29.63319288 29.59207254 33 33 C32.505 33.99 32.505 33.99 32 35 C27.05 35.495 27.05 35.495 22 36 C13.75 37.98 5.5 39.96 -3 42 C-3.33 65.1 -3.66 88.2 -4 112 C-4.33 112 -4.66 112 -5 112 C-5.07005067 97.84001388 -5.1227694 83.6800546 -5.15543652 69.51993084 C-5.17111268 62.94527375 -5.1923867 56.37073281 -5.22631836 49.79614258 C-5.25884199 43.45490688 -5.27683831 37.11378312 -5.28463173 30.77247047 C-5.29018781 28.34947763 -5.30103702 25.92649113 -5.31719017 23.50354576 C-5.33887111 20.11770618 -5.3419708 16.73233303 -5.34057617 13.34643555 C-5.351362 12.33799088 -5.36214783 11.3295462 -5.3732605 10.2905426 C-5.36913651 9.36927582 -5.36501251 8.44800903 -5.36076355 7.49882507 C-5.36352893 6.69778697 -5.36629431 5.89674887 -5.36914349 5.07143688 C-4.80203105 1.88910353 -3.32590747 0 0 0 Z " fill="#4E88B3" transform="translate(143,225)"/>
<path d="M0 0 C4.34116742 2.30825906 8.67996996 4.62085564 13.015625 6.93945312 C14.80112952 7.89371391 16.58798122 8.84545296 18.375 9.796875 C19.344375 10.31765625 20.31375 10.8384375 21.3125 11.375 C22.17488281 11.83648437 23.03726563 12.29796875 23.92578125 12.7734375 C26 14 26 14 28 16 C28.33984375 18.453125 28.33984375 18.453125 28 21 C25.54608908 23.65665569 22.12691531 25.22886501 19 27 C18.33000977 27.38865234 17.66001953 27.77730469 16.96972656 28.17773438 C14.72093759 29.47438709 12.45764149 30.74114507 10.1875 32 C9.44636963 32.42249023 8.70523926 32.84498047 7.94165039 33.28027344 C7.23258545 33.6621582 6.52352051 34.04404297 5.79296875 34.4375 C4.84200317 34.96150391 4.84200317 34.96150391 3.87182617 35.49609375 C2 36 2 36 -0.00756836 35.31494141 C-2.16516208 33.89099829 -3.85967072 32.36688668 -5.671875 30.5234375 C-6.33574219 29.853125 -6.99960938 29.1828125 -7.68359375 28.4921875 C-8.36550781 27.79351562 -9.04742187 27.09484375 -9.75 26.375 C-10.44738281 25.66859375 -11.14476562 24.9621875 -11.86328125 24.234375 C-13.58012488 22.49401297 -15.29211832 20.74915019 -17 19 C-15.60652624 15.84795019 -13.97514921 13.73828227 -11.5234375 11.328125 C-10.51796875 10.33232422 -10.51796875 10.33232422 -9.4921875 9.31640625 C-8.79351562 8.63449219 -8.09484375 7.95257813 -7.375 7.25 C-6.66859375 6.55261719 -5.9621875 5.85523438 -5.234375 5.13671875 C-3.49401297 3.41987512 -1.74915019 1.70788168 0 0 Z " fill="#F5C17B" transform="translate(217,264)"/>
<path d="M0 0 C2.31 0 4.62 0 7 0 C7.40839111 0.99330322 7.81678223 1.98660645 8.23754883 3.01000977 C9.76339503 6.72083616 11.28992343 10.4313816 12.81665039 14.1418457 C13.47536313 15.74300696 14.1338947 17.34424276 14.79223633 18.94555664 C15.74251614 21.25687309 16.69346283 23.56791421 17.64453125 25.87890625 C17.9352803 26.58648575 18.22602936 27.29406525 18.52558899 28.02308655 C18.94568489 29.04335182 18.94568489 29.04335182 19.37426758 30.08422852 C19.64292633 30.73827667 19.91158508 31.39232483 20.18838501 32.06619263 C20.73534869 33.36942435 21.29823846 34.66607178 21.87582397 35.95602417 C23.16147804 38.82991387 24 40.81087181 24 44 C24.66 44 25.32 44 26 44 C26.13619751 43.04154175 26.13619751 43.04154175 26.27514648 42.0637207 C27.27420621 37.84101927 28.93089534 33.97926863 30.59765625 29.98046875 C30.95137802 29.12189774 31.30509979 28.26332672 31.66954041 27.3787384 C32.79630246 24.64655847 33.92930665 21.9170179 35.0625 19.1875 C35.82918966 17.33155102 36.59547041 15.47543306 37.36132812 13.61914062 C39.23615245 9.07745528 41.11657792 4.53812624 43 0 C45.31 0 47.62 0 50 0 C48.05559186 6.11377521 45.83069961 12.03022691 43.3046875 17.92578125 C42.78121986 19.15886269 42.78121986 19.15886269 42.24717712 20.41685486 C41.12743667 23.05060313 40.00203363 25.681865 38.875 28.3125 C38.30125137 29.65302429 38.30125137 29.65302429 37.71591187 31.02062988 C35.82125707 35.44532107 33.92246707 39.86820513 32.02001953 44.28955078 C30.35544191 48.16228694 28.71784998 52.04536326 27.08984375 55.93359375 C26.33187981 57.70622162 25.57291042 59.47842023 24.8125 61.25 C24.49974121 62.01481689 24.18698242 62.77963379 23.86474609 63.56762695 C21.79337801 68.29812355 19.63857755 70.70703354 15 73 C12.2265625 73.390625 12.2265625 73.390625 9.625 73.25 C8.75101563 73.21390625 7.87703125 73.1778125 6.9765625 73.140625 C6.32429687 73.09421875 5.67203125 73.0478125 5 73 C5 71.02 5 69.04 5 67 C6.051875 67.103125 7.10375 67.20625 8.1875 67.3125 C12.06096358 67.33572518 12.06096358 67.33572518 14.75 64.9375 C18.16568792 60.47812966 20.11126568 57.07306999 19.80444336 51.35644531 C19.08236437 46.43836438 17.24108537 42.13660197 15.25390625 37.609375 C14.88273178 36.74233948 14.51155731 35.87530396 14.12913513 34.98199463 C12.94977906 32.23378146 11.75626856 29.49197859 10.5625 26.75 C9.76406259 24.89362088 8.96652762 23.03685335 8.16992188 21.1796875 C6.70919214 17.78380364 5.24624356 14.38894721 3.77172852 10.99902344 C3.47718277 10.32143982 3.18263702 9.6438562 2.87916565 8.94573975 C2.26496417 7.58640976 1.59655153 6.25086604 0.88926697 4.93756104 C0 3 0 3 0 0 Z " fill="#F1F1F1" transform="translate(732,259)"/>
<path d="M0 0 C5.51454028 0.03231176 9.34123877 3.83399067 13.125 7.5 C15.59354577 11.20281866 15.91241118 14.20576791 15.125 18.5 C12.90185607 22.03087565 11.15258711 23.97425776 7.4375 25.875 C0.00161482 27.2779972 -7.14406786 27.29923725 -13.875 23.5 C-17.66020021 20.19801684 -19.67110063 18.2671279 -20.25 13.25 C-19.75058843 8.25588426 -18.42756956 6.97182934 -14.875 3.5 C-10.54223675 0.46706573 -5.09672156 0.65764149 0 0 Z " fill="#040404" transform="translate(492.875,312.5)"/>
<path d="M0 0 C7 0 7 0 8.83276367 1.37353516 C9.27338135 2.00565918 9.71399902 2.6377832 10.16796875 3.2890625 C10.91916992 4.33126953 10.91916992 4.33126953 11.68554688 5.39453125 C12.18119141 6.13058594 12.67683594 6.86664063 13.1875 7.625 C13.69474609 8.33785156 14.20199219 9.05070313 14.72460938 9.78515625 C17.56607894 13.80227925 20.27027702 17.90541552 23 22 C23.33 14.74 23.66 7.48 24 0 C25.98 0 27.96 0 30 0 C30 11.55 30 23.1 30 35 C24 35 24 35 21.47265625 32.5078125 C20.64921102 31.39477286 19.84665345 30.26606207 19.0625 29.125 C18.63791504 28.54016846 18.21333008 27.95533691 17.77587891 27.3527832 C16.49722899 25.58180728 15.24685769 23.79345286 14 22 C13.27425781 20.98035156 12.54851562 19.96070313 11.80078125 18.91015625 C10.18115816 16.62034429 8.58748608 14.31220798 7 12 C6.67 19.59 6.34 27.18 6 35 C4.02 35 2.04 35 0 35 C0 23.45 0 11.9 0 0 Z " fill="#F9F9F9" transform="translate(494,164)"/>
<path d="M0 0 C1.14076834 0.81161384 2.27221351 1.63748542 3.375 2.5 C3.045 3.82 2.715 5.14 2.375 6.5 C0.6875 7.1875 0.6875 7.1875 -1.625 7.5 C-2.73875 6.7884375 -2.73875 6.7884375 -3.875 6.0625 C-7.50790566 3.99834906 -10.53265943 3.58232363 -14.625 4.5 C-17.58550874 6.79199403 -17.58550874 6.79199403 -19.625 9.5 C-19.955 9.83 -20.285 10.16 -20.625 10.5 C-21.16896172 15.31539887 -21.34990311 19.25730895 -18.875 23.5 C-16.05569096 26.06885809 -16.05569096 26.06885809 -12.625 27.5 C-8.86314678 27.16412025 -5.26105173 26.51809448 -1.625 25.5 C-1.625 23.52 -1.625 21.54 -1.625 19.5 C-4.925 19.5 -8.225 19.5 -11.625 19.5 C-11.625 17.85 -11.625 16.2 -11.625 14.5 C-6.345 14.5 -1.065 14.5 4.375 14.5 C4.89861164 23.92500944 4.89861164 23.92500944 4.375 28.5 C0.05594274 32.81905726 -4.48762253 33.67030167 -10.4375 33.8125 C-15.69290476 33.76178439 -18.65114201 33.17581864 -22.625 29.5 C-27.39131561 24.20409376 -29.15413185 20.18759946 -29.0078125 13.1015625 C-28.19155324 7.55433123 -25.02413299 3.8308826 -21.0625 0.0625 C-14.71942787 -4.00357188 -6.31828834 -3.97984711 0 0 Z " fill="#F5F5F5" transform="translate(300.625,165.5)"/>
<path d="M0 0 C4.96772304 1.41396291 7.98165265 5.16159604 10.99609375 9.1484375 C12.68180861 14.60222087 12.86415932 19.93965518 12.05859375 25.5859375 C10.38176836 28.63527552 8.1621674 30.03415067 5.05859375 31.5859375 C1.03145711 32.1350925 -0.60067984 31.8040024 -4.06640625 29.5859375 C-9.26208209 24.67739111 -11.17829202 19.56284788 -11.50390625 12.4609375 C-11.35770362 8.73512862 -11.10256544 5.92749404 -8.94140625 2.8359375 C-5.84934353 0.51689046 -3.89744116 -0.30943767 0 0 Z " fill="#050505" transform="translate(489.94140625,263.4140625)"/>
<path d="M0 0 C8.25 0 16.5 0 25 0 C25 1.65 25 3.3 25 5 C19.06 5 13.12 5 7 5 C7 7.97 7 10.94 7 14 C12.61 14 18.22 14 24 14 C24 15.98 24 17.96 24 20 C18.39 20 12.78 20 7 20 C7 22.97 7 25.94 7 29 C12.94 29 18.88 29 25 29 C25 30.98 25 32.96 25 35 C16.75 35 8.5 35 0 35 C0 23.45 0 11.9 0 0 Z " fill="#EDEDED" transform="translate(312,164)"/>
<path d="M0 0 C0.33 0 0.66 0 1 0 C1.33 4.62 1.66 9.24 2 14 C3.9284375 13.4946875 5.856875 12.989375 7.84375 12.46875 C9.73680135 11.98156767 11.62987173 11.49445642 13.5234375 11.00927734 C15.46527227 10.50894788 17.40454346 9.99870248 19.34375 9.48828125 C32.45289028 6.14271941 32.45289028 6.14271941 38 7 C40.96875 9.1875 40.96875 9.1875 43.5 12 C44.3559375 12.928125 45.211875 13.85625 46.09375 14.8125 C46.7228125 15.534375 47.351875 16.25625 48 17 C47.67 17.66 47.34 18.32 47 19 C46.67 18.67 46.34 18.34 46 18 C39.97772846 18.13541596 34.29302849 19.58841364 28.5625 21.3125 C19.45735649 23.95390078 10.27224843 26.03814129 1 28 C-0.12998844 18.65741704 -0.09908936 9.39146903 0 0 Z " fill="#5995B6" transform="translate(139,252)"/>
<path d="M0 0 C0.92683594 0.01353516 1.85367188 0.02707031 2.80859375 0.04101562 C5.08133998 0.07616119 7.35285847 0.12535868 9.625 0.1875 C10.39622179 9.81920327 10.39622179 9.81920327 7.6875 14.625 C2.00133088 19.38281498 -3.79503494 21.92734955 -11.29296875 21.5859375 C-14.62633201 20.94803309 -16.82746605 19.35290385 -19.375 17.1875 C-20.92524464 14.08701072 -20.66492015 11.60855782 -20.375 8.1875 C-15.58383875 0.07938097 -8.53845263 -0.23751758 0 0 Z " fill="#070707" transform="translate(710.375,285.8125)"/>
<path d="M0 0 C0.33 0 0.66 0 1 0 C1 5.61 1 11.22 1 17 C4.48052754 16.2349492 7.95933111 15.46314278 11.4375 14.6875 C12.41138672 14.47416016 13.38527344 14.26082031 14.38867188 14.04101562 C19.77039683 12.83507726 24.96163157 11.4542359 30.14477539 9.56176758 C32 9 32 9 35 9 C33.70949477 11.82779011 32.34597974 13.9140819 30.17431641 16.13208008 C29.32300644 17.00737114 29.32300644 17.00737114 28.45449829 17.90034485 C27.84302948 18.51717636 27.23156067 19.13400787 26.6015625 19.76953125 C25.97019379 20.40992844 25.33882507 21.05032562 24.68832397 21.71012878 C23.35452493 23.05840931 22.01791882 24.40391793 20.67871094 25.74682617 C18.62705621 27.81043182 16.59479077 29.89195356 14.5625 31.97460938 C13.2641728 33.28239464 11.96473095 34.58907447 10.6640625 35.89453125 C10.05664215 36.52148392 9.4492218 37.14843658 8.82339478 37.79438782 C7.08447266 39.51489258 7.08447266 39.51489258 4 42 C2.68 41.67 1.36 41.34 0 41 C0 27.47 0 13.94 0 0 Z " fill="#91CEBD" transform="translate(139,297)"/>
<path d="M0 0 C0.33 0 0.66 0 1 0 C1 7.92 1 15.84 1 24 C2.65 23.34 4.3 22.68 6 22 C7.427382 21.60706809 8.86433602 21.24735072 10.30859375 20.921875 C11.1274707 20.73334961 11.94634766 20.54482422 12.79003906 20.35058594 C13.66370117 20.15239258 14.53736328 19.95419922 15.4375 19.75 C24.18121149 17.72984796 32.83089274 15.4642565 41.45092773 12.96777344 C46.98817983 11.40340728 52.26345792 10.4877222 58 10 C58.66 11.32 59.32 12.64 60 14 C59.0499055 15.17005207 58.06285414 16.31011676 57.0625 17.4375 C56.51722656 18.07558594 55.97195312 18.71367187 55.41015625 19.37109375 C52.38889942 21.41301287 50.19295649 21.45655046 46.6159668 21.72827148 C41.6062384 22.24864738 36.75565557 23.60368042 31.875 24.8125 C30.77784668 25.07949707 29.68069336 25.34649414 28.55029297 25.62158203 C21.23318669 27.41341648 13.94915208 29.30354053 6.6953125 31.3359375 C4 32 4 32 1 32 C-0.09828769 28.45811722 -0.11445011 25.1790238 -0.09765625 21.484375 C-0.09443359 20.23398437 -0.09121094 18.98359375 -0.08789062 17.6953125 C-0.07951172 16.39335937 -0.07113281 15.09140625 -0.0625 13.75 C-0.05798828 12.43257813 -0.05347656 11.11515625 -0.04882812 9.7578125 C-0.03704316 6.50516259 -0.02059011 3.25260416 0 0 Z " fill="#7AB6BB" transform="translate(139,269)"/>
<path d="M0 0 C2.29612756 9.41002278 2.29612756 9.41002278 2 14 C2.99 14.33 3.98 14.66 5 15 C3.51043544 15.84248111 2.02084669 16.68491945 0.53125 17.52734375 C-0.42531494 18.0685083 -1.38187988 18.60967285 -2.36743164 19.16723633 C-4.46460736 20.35238332 -6.56276137 21.53580076 -8.66186523 22.7175293 C-13.42220874 25.39922239 -18.17463979 28.08806993 -22.87890625 30.8671875 C-23.59433594 31.28492432 -24.30976563 31.70266113 -25.046875 32.13305664 C-26.35383378 32.89782382 -27.65506358 33.67250077 -28.94921875 34.45874023 C-32.79650564 36.69222163 -35.56420344 37.39834398 -40 37 C-38.99090576 35.9941687 -38.99090576 35.9941687 -37.96142578 34.96801758 C-35.17065341 32.17742876 -32.40088736 29.366461 -29.63156128 26.55461121 C-26.79838367 23.68132263 -23.95726267 20.81594379 -21.11572266 17.95092773 C-19.61565723 16.43566225 -18.11827898 14.91773206 -16.62353516 13.3972168 C-14.46173058 11.19918483 -12.29052207 9.01084323 -10.1171875 6.82421875 C-9.44839569 6.13994308 -8.77960388 5.45566742 -8.09054565 4.75065613 C-7.46624664 4.12613052 -6.84194763 3.50160492 -6.19873047 2.8581543 C-5.65199677 2.30475876 -5.10526306 1.75136322 -4.54196167 1.18119812 C-3 0 -3 0 0 0 Z " fill="#AF4B6E" transform="translate(181,303)"/>
<path d="M0 0 C2.98067963 0.03848797 4.76649333 0.15914652 7.30859375 1.74609375 C10.36354401 4.91826032 11.6879422 7.64793598 11.875 12.0625 C11.58666793 16.08541889 10.55283358 19.09801197 8.3125 22.5 C4.0866215 25.31725233 0.27625312 25.29958384 -4.6875 24.5 C-7.51174288 22.30977082 -9.10258603 20.66982793 -10.6875 17.5 C-11.30915748 11.98501005 -11.75154786 7.86416392 -8.25 3.375 C-7.404375 2.75625 -6.55875 2.1375 -5.6875 1.5 C-4.05272064 -0.13477936 -2.25277873 0.13469529 0 0 Z " fill="#050505" transform="translate(468.6875,168.5)"/>
<path d="M0 0 C1.98 0 3.96 0 6 0 C6 23.43 6 46.86 6 71 C4.02 71 2.04 71 0 71 C0 47.57 0 24.14 0 0 Z " fill="#F4F4F4" transform="translate(669,240)"/>
<path d="M0 0 C2.3239708 1.01154979 3.94689696 1.95861571 5.75 3.76171875 C6.07421875 6.19921875 6.07421875 6.19921875 5.75 8.76171875 C3.29608908 11.41837444 -0.12308469 12.99058376 -3.25 14.76171875 C-3.91999023 15.15037109 -4.58998047 15.53902344 -5.28027344 15.93945312 C-7.52906241 17.23610584 -9.79235851 18.50286382 -12.0625 19.76171875 C-12.80363037 20.18420898 -13.54476074 20.60669922 -14.30834961 21.04199219 C-15.37194702 21.61481934 -15.37194702 21.61481934 -16.45703125 22.19921875 C-17.0910083 22.54855469 -17.72498535 22.89789063 -18.37817383 23.2578125 C-20.25 23.76171875 -20.25 23.76171875 -22.38061523 22.96728516 C-24.51741092 21.58926543 -25.89641142 20.10475928 -27.5 18.13671875 C-28.02078125 17.50507813 -28.5415625 16.8734375 -29.078125 16.22265625 C-29.46484375 15.74054688 -29.8515625 15.2584375 -30.25 14.76171875 C-28.27 14.43171875 -26.29 14.10171875 -24.25 13.76171875 C-24.25 13.10171875 -24.25 12.44171875 -24.25 11.76171875 C-17.625 7.76171875 -17.625 7.76171875 -14.25 7.76171875 C-14.25 7.10171875 -14.25 6.44171875 -14.25 5.76171875 C-12.34118566 4.72627701 -10.42260796 3.7088179 -8.5 2.69921875 C-7.43265625 2.13074219 -6.3653125 1.56226563 -5.265625 0.9765625 C-2.25 -0.23828125 -2.25 -0.23828125 0 0 Z " fill="#F3CF76" transform="translate(239.25,276.23828125)"/>
<path d="M0 0 C4.25195185 0.5317355 7.32692962 1.46439297 11.01953125 3.625 C11.9520874 4.16294189 12.88464355 4.70088379 13.84545898 5.25512695 C14.82458252 5.83093506 15.80370605 6.40674316 16.8125 7 C18.86089598 8.18286734 20.9103865 9.36384116 22.9609375 10.54296875 C23.97510742 11.12739746 24.98927734 11.71182617 26.03417969 12.31396484 C30.29029418 14.73351758 34.60207072 17.03885413 38.9375 19.3125 C39.65848877 19.69083984 40.37947754 20.06917969 41.12231445 20.45898438 C42.74674632 21.30879263 44.37311674 22.1548942 46 23 C40.66137949 27.17258348 35.82167595 28.62015236 29 28 C24.89301606 25.93160179 21.97539207 23.19669872 18.76953125 19.9296875 C18.29303635 19.44799103 17.81654144 18.96629456 17.3256073 18.47000122 C15.81635572 16.94305639 14.31402046 15.40954475 12.8125 13.875 C11.29938001 12.33423763 9.78480444 10.79497825 8.26725769 9.25857544 C6.89728124 7.8707859 5.53213475 6.47823333 4.16723633 5.08544922 C2.17981378 2.96577034 2.17981378 2.96577034 0 2 C0 1.34 0 0.68 0 0 Z " fill="#A3C9A8" transform="translate(143,225)"/>
<path d="M0 0 C8.91 0 17.82 0 27 0 C27 1.98 27 3.96 27 6 C23.7 6 20.4 6 17 6 C17 15.57 17 25.14 17 35 C14.69 35 12.38 35 10 35 C10 25.1 10 15.2 10 5 C6.7 5 3.4 5 0 5 C0 3.35 0 1.7 0 0 Z " fill="#EDECEC" transform="translate(343,164)"/>
<path d="M0 0 C2.475 0.99 2.475 0.99 5 2 C5.33546608 4.7705904 5.66845842 7.54143964 6 10.3125 C6.09539062 11.09818359 6.19078125 11.88386719 6.2890625 12.69335938 C6.37929687 13.45068359 6.46953125 14.20800781 6.5625 14.98828125 C6.68818359 16.03302612 6.68818359 16.03302612 6.81640625 17.09887695 C7 19 7 19 7 22 C5.06891037 23.03290841 3.129882 24.05098672 1.1875 25.0625 C0.10855469 25.63097656 -0.97039062 26.19945312 -2.08203125 26.78515625 C-5 28 -5 28 -8 27 C-8.12117187 26.00097656 -8.24234375 25.00195312 -8.3671875 23.97265625 C-8.53476563 22.68230469 -8.70234375 21.39195312 -8.875 20.0625 C-9.03742188 18.77472656 -9.19984375 17.48695313 -9.3671875 16.16015625 C-9.57601562 15.11730469 -9.78484375 14.07445312 -10 13 C-10.66 12.67 -11.32 12.34 -12 12 C-8.04 8.04 -4.08 4.08 0 0 Z " fill="#C04A59" transform="translate(191,290)"/>
<path d="M0 0 C0 0.66 0 1.32 0 2 C0.54140625 2.2165625 1.0828125 2.433125 1.640625 2.65625 C4.81645344 4.46499997 7.20728081 6.91723799 9.75 9.5 C10.25660156 9.99886719 10.76320312 10.49773437 11.28515625 11.01171875 C15 14.74658861 15 14.74658861 15 17 C13.500823 17.31642465 12.00059887 17.62788849 10.5 17.9375 C9.6646875 18.11152344 8.829375 18.28554687 7.96875 18.46484375 C4.33542447 19.11979848 0.66337652 19.54207794 -3 20 C-3.33 50.36 -3.66 80.72 -4 112 C-4.33 112 -4.66 112 -5 112 C-5.07005067 97.84001388 -5.1227694 83.6800546 -5.15543652 69.51993084 C-5.17111268 62.94527375 -5.1923867 56.37073281 -5.22631836 49.79614258 C-5.25884199 43.45490688 -5.27683831 37.11378312 -5.28463173 30.77247047 C-5.29018781 28.34947763 -5.30103702 25.92649113 -5.31719017 23.50354576 C-5.33887111 20.11770618 -5.3419708 16.73233303 -5.34057617 13.34643555 C-5.351362 12.33799088 -5.36214783 11.3295462 -5.3732605 10.2905426 C-5.36913651 9.36927582 -5.36501251 8.44800903 -5.36076355 7.49882507 C-5.36352893 6.69778697 -5.36629431 5.89674887 -5.36914349 5.07143688 C-4.80203105 1.88910353 -3.32590747 0 0 0 Z " fill="#2E608A" transform="translate(143,225)"/>
<path d="M0 0 C8.91 0 17.82 0 27 0 C27 1.65 27 3.3 27 5 C23.7 5 20.4 5 17 5 C17 14.9 17 24.8 17 35 C15.02 35 13.04 35 11 35 C11 25.1 11 15.2 11 5 C7.37 5 3.74 5 0 5 C0 3.35 0 1.7 0 0 Z " fill="#FAFAFA" transform="translate(404,164)"/>
<path d="M0 0 C3.375 2.125 3.375 2.125 6 5 C6.6640625 8.1796875 6.6640625 8.1796875 7 11 C4.60496313 12.12672175 2.2090129 13.25142558 -0.1875 14.375 C-0.86103516 14.69210937 -1.53457031 15.00921875 -2.22851562 15.3359375 C-12.18823242 20 -12.18823242 20 -16 20 C-16.62198953 10.29005236 -16.62198953 10.29005236 -14.3125 5.5 C-9.92969366 0.76183099 -6.54361403 -0.91840197 0 0 Z " fill="#080808" transform="translate(569,262)"/>
<path d="M0 0 C0.721875 0.53625 1.44375 1.0725 2.1875 1.625 C2.1875 2.615 2.1875 3.605 2.1875 4.625 C1.6925 4.13 1.6925 4.13 1.1875 3.625 C-4.83477154 3.76041596 -10.51947151 5.21341364 -16.25 6.9375 C-25.35514351 9.57890078 -34.54025157 11.66314129 -43.8125 13.625 C-43.8125 11.315 -43.8125 9.005 -43.8125 6.625 C-26.234375 2.23046875 -26.234375 2.23046875 -23.03320312 1.43896484 C-20.85436451 0.8883093 -18.68113896 0.31503119 -16.51367188 -0.27880859 C-15.46244141 -0.56191895 -14.41121094 -0.8450293 -13.328125 -1.13671875 C-12.38743164 -1.39799561 -11.44673828 -1.65927246 -10.47753906 -1.9284668 C-6.40205851 -2.6113226 -3.66967416 -1.79406292 0 0 Z " fill="#639CB6" transform="translate(183.8125,266.375)"/>
<path d="M0 0 C2.31 0 4.62 0 7 0 C7 11.88 7 23.76 7 36 C4.69 36 2.38 36 0 36 C0 24.12 0 12.24 0 0 Z " fill="#E5E5E5" transform="translate(391,163)"/>
<path d="M0 0 C3.96 1.98 7.92 3.96 12 6 C8.6827814 9.3172186 6.74084352 10.87936499 2.75 12.9375 C-0.77353161 14.77913252 -4.09527297 16.69281991 -7.375 18.9375 C-10.07170519 20.6798157 -10.66812808 21.020742 -14 20.8125 C-14.66 20.544375 -15.32 20.27625 -16 20 C-16 16 -16 16 -14.53125 14.07714844 C-13.8609375 13.4277832 -13.190625 12.77841797 -12.5 12.109375 C-11.778125 11.40039062 -11.05625 10.69140625 -10.3125 9.9609375 C-9.549375 9.23132813 -8.78625 8.50171875 -8 7.75 C-7.236875 7.00492187 -6.47375 6.25984375 -5.6875 5.4921875 C-3.80049616 3.65235875 -1.90137126 1.82497688 0 0 Z " fill="#EFAF7E" transform="translate(217,264)"/>
<path d="M0 0 C0.33 0 0.66 0 1 0 C1 3.3 1 6.6 1 10 C1.70125 9.79503906 2.4025 9.59007812 3.125 9.37890625 C6.07297023 8.54177883 9.03387972 7.77001268 12 7 C12.73605469 6.76796875 13.47210938 6.5359375 14.23046875 6.296875 C16.1875 5.8125 16.1875 5.8125 20 6 C23.07543917 8.33966285 25.55010839 11.02233919 28 14 C27.67 14.66 27.34 15.32 27 16 C25.989375 15.9175 24.97875 15.835 23.9375 15.75 C18.8145162 15.713144 14.0694046 17.16601512 9.19311523 18.57714844 C6.34804234 19.39744184 3.98039625 20 1 20 C0.09761253 17.29283758 -0.11851302 15.76223232 -0.09765625 12.98828125 C-0.09443359 12.23095703 -0.09121094 11.47363281 -0.08789062 10.69335938 C-0.07951172 9.90767578 -0.07113281 9.12199219 -0.0625 8.3125 C-0.05798828 7.51521484 -0.05347656 6.71792969 -0.04882812 5.89648438 C-0.0370585 3.93095743 -0.01912348 1.96546915 0 0 Z " fill="#4079AE" transform="translate(139,235)"/>
<path d="M0 0 C0 3 0 3 -2 6 C-1.74889902 8.34360915 -1.41434251 10.67968195 -1 13 C-1 13.99 -1 14.98 -1 16 C-4.1966334 17.85431638 -7.40898848 19.67953173 -10.625 21.5 C-11.52863281 22.02464844 -12.43226563 22.54929687 -13.36328125 23.08984375 C-21.69902013 27.77489407 -21.69902013 27.77489407 -27 27 C-18 18 -9 9 0 0 Z " fill="#A24F7C" transform="translate(168,313)"/>
<path d="M0 0 C-4.98404168 6.03331362 -10.41915303 11.5184171 -16 17 C-17.06816445 16.13192399 -18.12918085 15.25505217 -19.1875 14.375 C-19.77917969 13.88773437 -20.37085938 13.40046875 -20.98046875 12.8984375 C-23.58543045 10.44967273 -25.74813905 7.77690625 -28 5 C-26.74703125 4.72285156 -25.4940625 4.44570313 -24.203125 4.16015625 C-22.55207708 3.79429904 -20.90103576 3.42841207 -19.25 3.0625 C-18.425 2.88009766 -17.6 2.69769531 -16.75 2.50976562 C-15.55117187 2.24389648 -15.55117187 2.24389648 -14.328125 1.97265625 C-13.22839355 1.72914429 -13.22839355 1.72914429 -12.10644531 1.48071289 C-10.70875714 1.1617458 -9.31689789 0.81599481 -7.93261719 0.44311523 C-5.27424114 -0.16640378 -2.71598968 -0.06172704 0 0 Z " fill="#DAE59C" transform="translate(216,265)"/>
<path d="M0 0 C1.99236105 0.97698966 3.96028546 1.9868284 5.91796875 3.03125 C4.92796875 3.52625 4.92796875 3.52625 3.91796875 4.03125 C3.91796875 4.69125 3.91796875 5.35125 3.91796875 6.03125 C-11.996146 9.9874274 -11.996146 9.9874274 -18.08203125 8.03125 C-20.42534065 5.91520121 -22.29307642 3.62658977 -24.08203125 1.03125 C-23.24671875 1.08345703 -23.24671875 1.08345703 -22.39453125 1.13671875 C-18.13492978 1.28781948 -14.79236809 1.13148684 -10.83203125 -0.53125 C-6.52856873 -2.31024041 -4.24461849 -1.97498196 0 0 Z " fill="#B7D4A4" transform="translate(194.08203125,250.96875)"/>
<path d="M0 0 C1.32 1.32 2.64 2.64 4 4 C3.01 4 2.02 4 1 4 C1.4503255 6.91810922 1.90990942 9.83423984 2.375 12.75 C2.50132812 13.575 2.62765625 14.4 2.7578125 15.25 C2.95117188 16.44882812 2.95117188 16.44882812 3.1484375 17.671875 C3.26364746 18.4050293 3.37885742 19.13818359 3.49755859 19.89355469 C4.03598837 22.15087834 4.8887698 23.97009934 6 26 C4.25 27.0625 4.25 27.0625 2 28 C0.68 27.67 -0.64 27.34 -2 27 C-2.66 21.39 -3.32 15.78 -4 10 C-4.99 9.67 -5.98 9.34 -7 9 C-5.44499019 5.18315774 -2.96404505 2.80804268 0 0 Z " fill="#CC4A4B" transform="translate(199,282)"/>
<path d="M0 0 C6.27808499 0.40671979 11.03942782 3.51414528 16.375 6.5625 C17.30183594 7.08263672 18.22867188 7.60277344 19.18359375 8.13867188 C21.46034654 9.41787834 23.73213523 10.70512238 26 12 C25 14 25 14 23.375 14.625 C15.33756459 15.89406875 15.33756459 15.89406875 12.33886719 13.88964844 C10.69529606 12.34784642 9.1844694 10.74682956 7.6875 9.0625 C4.23578164 5.0351972 4.23578164 5.0351972 0 2 C0 1.34 0 0.68 0 0 Z " fill="#92BEAA" transform="translate(143,225)"/>
<path d="M0 0 C0.66 0.66 1.32 1.32 2 2 C-8.77172381 6.85486144 -8.77172381 6.85486144 -15 6 C-19.6 3.8 -19.6 3.8 -21 1 C-18.62815918 0.43872469 -16.25471941 -0.0991444 -13.875 -0.625 C-13.20984375 -0.78484375 -12.5446875 -0.9446875 -11.859375 -1.109375 C-7.26572711 -2.1001618 -4.27196847 -1.96485197 0 0 Z " fill="#ABCCA5" transform="translate(187,247)"/>
<path d="M0 0 C0.66 0 1.32 0 2 0 C2.66 1.98 3.32 3.96 4 6 C1.80040031 7.34989131 -0.407838 8.6795172 -2.625 10 C-3.24246094 10.3815625 -3.85992187 10.763125 -4.49609375 11.15625 C-8.49608172 13.51413765 -11.2234906 14.47030246 -16 14 C-14.33333333 12.33333333 -12.66666667 10.66666667 -11 9 C-10.175 8.13375 -9.35 7.2675 -8.5 6.375 C-6.12162481 4.11554357 -3.85446167 2.58581204 -1 1 C-0.67 0.67 -0.34 0.34 0 0 Z " fill="#934B80" transform="translate(157,326)"/>
<path d="M0 0 C0 0.66 0 1.32 0 2 C-2.46816414 3.23408207 -4.24661201 3.20197579 -7 3.25 C-7.886875 3.27578125 -8.77375 3.3015625 -9.6875 3.328125 C-10.450625 3.21984375 -11.21375 3.1115625 -12 3 C-12.66 2.01 -13.32 1.02 -14 0 C-12.42074025 -0.39180108 -10.83631206 -0.76280736 -9.25 -1.125 C-8.36828125 -1.33382812 -7.4865625 -1.54265625 -6.578125 -1.7578125 C-3.67124507 -2.03088304 -2.43338652 -1.53508028 0 0 Z " fill="#9DC3AD" transform="translate(172,240)"/>
<path d="M0 0 C4.35522853 0.50642192 7.44239635 1.38411497 11 4 C11 4.66 11 5.32 11 6 C7.14521782 6.35858439 5.42240542 6.2754818 2.125 4.125 C1.42375 3.42375 0.7225 2.7225 0 2 C0 1.34 0 0.68 0 0 Z " fill="#7FB2B3" transform="translate(143,225)"/>
<path d="M0 0 C0.66 0.33 1.32 0.66 2 1 C1.3503125 1.72316406 1.3503125 1.72316406 0.6875 2.4609375 C0.130625 3.09257812 -0.42625 3.72421875 -1 4.375 C-1.556875 5.00148438 -2.11375 5.62796875 -2.6875 6.2734375 C-4.20172487 7.90389833 -4.20172487 7.90389833 -4 10 C-5.98 10 -7.96 10 -10 10 C-6.66666667 6.66666667 -3.33333333 3.33333333 0 0 Z " fill="#8A5286" transform="translate(151,330)"/>
<path d="M0 0 C0.66 0.66 1.32 1.32 2 2 C1.04287109 2.07347656 1.04287109 2.07347656 0.06640625 2.1484375 C-0.75988281 2.22320312 -1.58617187 2.29796875 -2.4375 2.375 C-3.26121094 2.44460938 -4.08492187 2.51421875 -4.93359375 2.5859375 C-5.95646484 2.79089844 -5.95646484 2.79089844 -7 3 C-7.33 3.66 -7.66 4.32 -8 5 C-8 3.68 -8 2.36 -8 1 C-3.375 -1.125 -3.375 -1.125 0 0 Z " fill="#C5C5C5" transform="translate(561,281)"/>
</svg>
